<?xml version="1.0" encoding="UTF-8" standalone="no"?>
<!-- Created with Inkscape (http://www.inkscape.org/) -->

<svg
   xmlns:dc="http://purl.org/dc/elements/1.1/"
   xmlns:cc="http://creativecommons.org/ns#"
   xmlns:rdf="http://www.w3.org/1999/02/22-rdf-syntax-ns#"
   xmlns:svg="http://www.w3.org/2000/svg"
   xmlns="http://www.w3.org/2000/svg"
   xmlns:sodipodi="http://sodipodi.sourceforge.net/DTD/sodipodi-0.dtd"
   xmlns:inkscape="http://www.inkscape.org/namespaces/inkscape"
   width="227.75"
   height="213.67"
   id="svg3642"
   version="1.1"
   inkscape:version="0.48.4 r9939"
   sodipodi:docname="treee.svg">
  <defs
     id="defs3644" />
  <sodipodi:namedview
     id="base"
     pagecolor="#ffffff"
     bordercolor="#666666"
     borderopacity="1.0"
     inkscape:pageopacity="0.0"
     inkscape:pageshadow="2"
     inkscape:zoom="1.979899"
     inkscape:cx="169.34407"
     inkscape:cy="141.54767"
     inkscape:document-units="px"
     inkscape:current-layer="layer1"
     showgrid="false"
     inkscape:window-width="1855"
     inkscape:window-height="1056"
     inkscape:window-x="65"
     inkscape:window-y="24"
     inkscape:window-maximized="1" />
  <metadata
     id="metadata3647">
    <rdf:RDF>
      <cc:Work
         rdf:about="">
        <dc:format>image/svg+xml</dc:format>
        <dc:type
           rdf:resource="http://purl.org/dc/dcmitype/StillImage" />
      </cc:Work>
    </rdf:RDF>
  </metadata>
  <g
     inkscape:label="Layer 1"
     inkscape:groupmode="layer"
     id="layer1"
     transform="translate(0,-838.69217)">
    <g
       id="g3729"
       transform="matrix(3.2233109,0,0,3.5669394,-543.65246,-1054.0041)">
      <path
         id="path3245"
         style="fill:#fbcb3a;fill-opacity:1;fill-rule:nonzero;stroke:none"
         d="m 169.17043,566.31338 c 0,2.16375 1.755,3.92 3.91875,3.92 l 24.73375,0 -12.78875,-7.66125 -13.12,0 c -1.58875,0.50125 -2.74375,1.9875 -2.74375,3.74125"
         inkscape:connector-curvature="0" />
      <path
         id="path3247"
         style="fill:#fbcb3a;fill-opacity:1;fill-rule:nonzero;stroke:none"
         d="m 238.53543,566.31338 c 0,-1.75375 -1.15375,-3.24 -2.7425,-3.74125 l -13.10625,0 -12.785,7.66125 24.71375,0 c 2.165,0 3.92,-1.75625 3.92,-3.92"
         inkscape:connector-curvature="0" />
      <path
         id="path3249"
         style="fill:#cb7224;fill-opacity:1;fill-rule:nonzero;stroke:none"
         d="m 235.71169,577.53463 c -0.67625,-0.0412 -1.38376,-0.16125 -2.10375,-0.38 -3.23125,-0.99125 -4.04501,-0.8475 -5.4575,0.96625 -1.3075,1.6775 -3.47375,2.6275 -5.52375,2.42875 -2.19375,-0.21625 -3.26375,-0.78375 -5.1825,-2.27 l -0.13376,-0.0962 c -1.35374,-1.05625 -2.25,-1.75125 -4.4225,-1.5125 -0.015,10e-4 -1.82375,0.135 -3.90125,2.035 -1.13625,1.04125 -2.89875,2.42 -5.065,2.42625 -2.1625,-0.006 -3.92375,-1.385 -5.0625,-2.42625 -2.07625,-1.9 -3.885,-2.03375 -3.95375,-2.04 -2.11875,-0.23375 -3.015,0.46125 -4.3675,1.50875 l -0.135,0.105 c -1.915,1.48625 -2.9875,2.05375 -5.18375,2.27 -2.05,0.19875 -4.21625,-0.75125 -5.52,-2.42875 -1.4175,-1.81375 -2.2325,-1.9575 -5.46375,-0.96625 -0.76625,0.2325 -1.51125,0.35375 -2.2225,0.38625 l 0,6.59375 c 0,0 -0.39,6.18125 6.9825,6.18125 l 49.73125,0 c 7.37375,0 6.985,-6.18125 6.985,-6.18125 l 0,-6.6"
         inkscape:connector-curvature="0" />
      <path
         id="path3251"
         style="fill:#cb7224;fill-opacity:1;fill-rule:nonzero;stroke:none"
         d="m 169.84168,549.49213 c 0,2.4075 0.8875,3.7125 1.6525,4.38875 l 64.76875,0 c 0.7575,-0.66875 1.615,-1.9625 1.615,-4.38875 0,-5.06625 -7.81875,-18.23875 -34.01749,-18.23875 -26.2,0 -34.01876,13.1725 -34.01876,18.23875"
         inkscape:connector-curvature="0" />
      <path
         id="path3253"
         style="fill:#9f461e;fill-opacity:1;fill-rule:nonzero;stroke:none"
         d="m 171.62668,575.99713 64.46625,0 0,-6.45625 -28.795,0 -3.4375,2.0575 -3.44125,-2.0575 -28.7925,0 0,6.45625"
         inkscape:connector-curvature="0" />
      <path
         id="path3255"
         style="fill:#fbcb3a;fill-opacity:1;fill-rule:nonzero;stroke:none"
         d="m 223.30794,562.57213 -38.00125,0 c 5.98249,3.99 18.17375,10.9575 19.00374,11.50875 0.82626,-0.55125 13.01876,-7.51875 18.99751,-11.50875"
         inkscape:connector-curvature="0" />
      <path
         id="path3257"
         style="fill:#9f461e;fill-opacity:1;fill-rule:nonzero;stroke:none"
         d="m 228.15043,557.46963 c -1.3075,1.9875 -3.47375,3.1175 -5.52375,2.88125 -2.19375,-0.25875 -3.26375,-0.93125 -5.1825,-2.69125 l -0.13375,-0.1225 c -1.35375,-1.25125 -2.25,-2.07625 -4.4225,-1.78625 -0.015,0 -1.82375,0.16375 -3.90125,2.415 -1.13625,1.2325 -2.89875,2.87 -5.065,2.88 -2.1625,-0.01 -3.92375,-1.6475 -5.0625,-2.88 -2.07625,-2.25125 -3.885,-2.415 -3.95375,-2.42375 -2.11875,-0.28125 -3.015,0.54375 -4.3675,1.795 l -0.135,0.1225 c -1.915,1.76 -2.9875,2.4325 -5.18375,2.69125 -2.05,0.23625 -4.21625,-0.89375 -5.52,-2.88125 -1.4175,-2.155 -2.2325,-2.32375 -5.46375,-1.15125 -0.90375,0.33 -1.785,0.4825 -2.60875,0.48125 l 0,6.215 64.46625,0 0,-6.215 c -0.785,-0.0113 -1.625,-0.1675 -2.485,-0.48125 -3.23125,-1.1725 -4.045,-1.00375 -5.4575,1.15125"
         inkscape:connector-curvature="0" />
      <path
         id="path3259"
         style="fill:#f25547;fill-opacity:1;fill-rule:nonzero;stroke:none"
         d="m 236.51919,553.35713 c -0.4625,0 -64.72751,0 -65.19,0 -0.755,0.4275 -2.2725,1.5375 -2.40375,2.88 l -0.015,0.21 c 0,0.4975 0.1975,0.91 0.5825,1.2275 0.87125,0.715 2.4875,0.82875 4.2125,0.30375 3.105,-0.95125 5.155,-1.31875 7.42,1.58375 1.13,1.45875 2.82,1.8475 3.9175,1.7375 1.68,-0.16625 2.47625,-0.5175 4.25125,-1.89375 l 0.1325,-0.10375 c 1.45375,-1.13125 2.82749,-2.19625 5.61999,-1.88375 0.10125,0.004 2.43876,0.13625 5.03501,2.5075 0.9125,0.835 2.30874,1.9475 3.83999,1.95125 1.53501,-0.004 2.9275,-1.11625 3.84501,-1.95125 2.59249,-2.37125 4.9325,-2.50375 4.9725,-2.50375 2.85375,-0.31625 4.22875,0.74875 5.6825,1.88 l 0.1325,0.10375 c 1.7725,1.37625 2.5675,1.7275 4.24875,1.89375 1.09875,0.11 2.785,-0.27875 3.9225,-1.7375 2.2575,-2.9025 4.3075,-2.535 7.415,-1.58375 1.7275,0.525 3.34125,0.41125 4.21375,-0.30375 0.3875,-0.3175 0.57875,-0.73 0.57875,-1.2275 l -0.0138,-0.21 c -0.13125,-1.3425 -1.6475,-2.4525 -2.4,-2.88"
         inkscape:connector-curvature="0" />
      <path
         id="path3261"
         style="fill:#7fc83d;fill-opacity:1;fill-rule:nonzero;stroke:none"
         d="m 236.51919,575.47088 c -0.4625,0 -64.72751,0 -65.19,0 -0.755,0.4225 -2.2725,1.5375 -2.40375,2.87875 l -0.015,0.21 c 0,0.49875 0.1975,0.91 0.5825,1.22625 0.87125,0.71625 2.4875,0.835 4.2125,0.30375 3.105,-0.9475 5.155,-1.3175 7.42,1.5875 1.13,1.4575 2.82,1.845 3.9175,1.7375 1.68,-0.16625 2.47625,-0.52 4.25125,-1.895 l 0.1325,-0.10375 c 1.45375,-1.13 2.82749,-2.1975 5.61999,-1.885 0.10125,0.007 2.43876,0.13875 5.03501,2.51 0.9125,0.83625 2.30874,1.95 3.83999,1.95375 1.53501,-0.004 2.9275,-1.1175 3.84501,-1.95375 2.59249,-2.37125 4.9325,-2.5025 4.9725,-2.5025 2.85375,-0.32 4.22875,0.7475 5.6825,1.8775 l 0.1325,0.10375 c 1.7725,1.375 2.5675,1.72875 4.24875,1.895 1.09875,0.1075 2.785,-0.28 3.9225,-1.7375 2.2575,-2.905 4.3075,-2.535 7.415,-1.5875 1.7275,0.53125 3.34125,0.4125 4.21375,-0.30375 0.3875,-0.31625 0.57875,-0.7275 0.57875,-1.22625 l -0.0138,-0.21 c -0.13125,-1.34125 -1.6475,-2.45625 -2.4,-2.87875"
         inkscape:connector-curvature="0" />
      <path
         id="path3263"
         style="fill:#fbcb3a;fill-opacity:1;fill-rule:nonzero;stroke:none"
         d="m 207.86418,547.08713 c -0.625,-0.12875 -1.23,0.2525 -1.3525,0.85375 -0.1225,0.59875 0.2825,1.18875 0.905,1.315 0.62625,0.13 1.23125,-0.25125 1.355,-0.85 0.1225,-0.6 -0.28375,-1.19 -0.9075,-1.31875"
         inkscape:connector-curvature="0" />
      <path
         id="path3265"
         style="fill:#fbcb3a;fill-opacity:1;fill-rule:nonzero;stroke:none"
         d="m 221.99918,547.62713 c -0.625,-0.12875 -1.23,0.2525 -1.3525,0.85125 -0.12375,0.6 0.28125,1.18875 0.90625,1.31875 0.62375,0.12875 1.23,-0.2525 1.35375,-0.85375 0.1225,-0.6 -0.2825,-1.1875 -0.9075,-1.31625"
         inkscape:connector-curvature="0" />
      <path
         id="path3267"
         style="fill:#fbcb3a;fill-opacity:1;fill-rule:nonzero;stroke:none"
         d="m 214.53293,542.45838 c -0.6225,-0.13 -1.22875,0.2525 -1.35125,0.8525 -0.12374,0.59875 0.28125,1.1875 0.90375,1.3175 0.625,0.12875 1.23,-0.2525 1.35625,-0.85125 0.12125,-0.60125 -0.28375,-1.19125 -0.90875,-1.31875"
         inkscape:connector-curvature="0" />
      <path
         id="path3269"
         style="fill:#fbcb3a;fill-opacity:1;fill-rule:nonzero;stroke:none"
         d="m 206.79418,537.29463 c -0.625,-0.12875 -1.23,0.2525 -1.3525,0.85125 -0.125,0.6 0.28,1.18875 0.90625,1.31875 0.625,0.12875 1.23,-0.255 1.3525,-0.8525 0.12375,-0.60125 -0.28125,-1.19 -0.90625,-1.3175"
         inkscape:connector-curvature="0" />
      <path
         id="path3271"
         style="fill:#fbcb3a;fill-opacity:1;fill-rule:nonzero;stroke:none"
         d="m 200.01043,549.49963 c -0.62124,-0.13 -1.22875,0.2525 -1.35125,0.85 -0.125,0.60125 0.28251,1.19125 0.905,1.3175 0.625,0.13 1.23,-0.2525 1.35375,-0.85125 0.12375,-0.59875 -0.2825,-1.19125 -0.9075,-1.31625"
         inkscape:connector-curvature="0" />
      <path
         id="path3273"
         style="fill:#fbcb3a;fill-opacity:1;fill-rule:nonzero;stroke:none"
         d="m 195.02793,540.86213 c -0.6225,-0.1275 -1.22875,0.255 -1.35125,0.8525 -0.12375,0.60125 0.28125,1.18875 0.90625,1.31875 0.62375,0.1275 1.23,-0.25375 1.35125,-0.8525 0.125,-0.59875 -0.28125,-1.18875 -0.90625,-1.31875"
         inkscape:connector-curvature="0" />
      <path
         id="path3275"
         style="fill:#fbcb3a;fill-opacity:1;fill-rule:nonzero;stroke:none"
         d="m 229.77918,543.73588 c -0.62374,-0.1275 -1.23,0.255 -1.35374,0.855 -0.12375,0.59875 0.28375,1.18625 0.9075,1.31625 0.6225,0.12875 1.23,-0.2525 1.3525,-0.8525 0.1225,-0.6 -0.28125,-1.19 -0.90625,-1.31875"
         inkscape:connector-curvature="0" />
      <path
         id="path3277"
         style="fill:#fbcb3a;fill-opacity:1;fill-rule:nonzero;stroke:none"
         d="m 212.92544,534.25088 c -0.62626,-0.12875 -1.23125,0.2525 -1.35501,0.8525 -0.1225,0.6 0.28375,1.1875 0.90751,1.3175 0.6225,0.1275 1.22875,-0.255 1.3525,-0.85375 0.1225,-0.5975 -0.2825,-1.18875 -0.905,-1.31625"
         inkscape:connector-curvature="0" />
      <path
         id="path3279"
         style="fill:#fbcb3a;fill-opacity:1;fill-rule:nonzero;stroke:none"
         d="m 202.35918,532.03588 c -0.62374,-0.12875 -1.22875,0.255 -1.35375,0.85375 -0.1225,0.6 0.28375,1.1875 0.90751,1.31625 0.6225,0.1275 1.23,-0.2525 1.3525,-0.85125 0.12375,-0.6 -0.28125,-1.19 -0.90625,-1.31875"
         inkscape:connector-curvature="0" />
      <path
         id="path3281"
         style="fill:#fbcb3a;fill-opacity:1;fill-rule:nonzero;stroke:none"
         d="m 191.65668,536.34588 c -0.62375,-0.12875 -1.22874,0.2525 -1.35374,0.8525 -0.12375,0.6 0.2825,1.19 0.9075,1.31625 0.62375,0.13 1.22999,-0.25125 1.35374,-0.85125 0.1225,-0.6 -0.2825,-1.19 -0.9075,-1.3175"
         inkscape:connector-curvature="0" />
      <path
         id="path3283"
         style="fill:#fbcb3a;fill-opacity:1;fill-rule:nonzero;stroke:none"
         d="m 189.76918,545.84588 c -0.62625,-0.12875 -1.23,0.25125 -1.355,0.85125 -0.12125,0.6 0.28375,1.19 0.9075,1.31875 0.62375,0.1275 1.23,-0.2525 1.3525,-0.8525 0.125,-0.6 -0.28125,-1.19 -0.905,-1.3175"
         inkscape:connector-curvature="0" />
      <path
         id="path3285"
         style="fill:#fbcb3a;fill-opacity:1;fill-rule:nonzero;stroke:none"
         d="m 181.80418,546.30963 c -0.62625,-0.12875 -1.2325,0.255 -1.355,0.8525 -0.1225,0.6 0.2825,1.18875 0.90625,1.3175 0.62375,0.13 1.23125,-0.2525 1.3525,-0.8525 0.12375,-0.59875 -0.2825,-1.19 -0.90375,-1.3175"
         inkscape:connector-curvature="0" />
      <path
         id="path3287"
         style="fill:#fbcb3a;fill-opacity:1;fill-rule:nonzero;stroke:none"
         d="m 224.20543,536.97338 c -0.625,-0.1275 -1.23,0.25375 -1.35375,0.8525 -0.12374,0.59875 0.28125,1.18875 0.90625,1.31875 0.625,0.12875 1.23001,-0.255 1.35251,-0.855 0.12374,-0.59875 -0.28251,-1.1875 -0.905,-1.31625"
         inkscape:connector-curvature="0" />
      <path
         id="path3289"
         style="fill:#fbcb3a;fill-opacity:1;fill-rule:nonzero;stroke:none"
         d="m 184.20918,538.89713 c -0.6225,-0.1275 -1.2275,0.25125 -1.3525,0.8525 -0.12375,0.59875 0.2825,1.19 0.90625,1.3175 0.62375,0.1275 1.22875,-0.25375 1.355,-0.85375 0.12375,-0.59875 -0.28375,-1.1875 -0.90875,-1.31625"
         inkscape:connector-curvature="0" />
    </g>
  </g>
</svg>
