<?xml version="1.0" encoding="UTF-8" standalone="no"?>
<!-- Created with Inkscape (http://www.inkscape.org/) -->

<svg
   xmlns:dc="http://purl.org/dc/elements/1.1/"
   xmlns:cc="http://creativecommons.org/ns#"
   xmlns:rdf="http://www.w3.org/1999/02/22-rdf-syntax-ns#"
   xmlns:svg="http://www.w3.org/2000/svg"
   xmlns="http://www.w3.org/2000/svg"
   xmlns:sodipodi="http://sodipodi.sourceforge.net/DTD/sodipodi-0.dtd"
   xmlns:inkscape="http://www.inkscape.org/namespaces/inkscape"
   width="198.09"
   height="250"
   id="svg4099"
   version="1.1"
   inkscape:version="0.48.4 r9939"
   sodipodi:docname="chips.svg">
  <defs
     id="defs4101" />
  <sodipodi:namedview
     id="base"
     pagecolor="#ffffff"
     bordercolor="#666666"
     borderopacity="1.0"
     inkscape:pageopacity="0.0"
     inkscape:pageshadow="2"
     inkscape:zoom="2.8"
     inkscape:cx="180.13238"
     inkscape:cy="147.58217"
     inkscape:document-units="px"
     inkscape:current-layer="layer1"
     showgrid="false"
     inkscape:window-width="1855"
     inkscape:window-height="1056"
     inkscape:window-x="65"
     inkscape:window-y="24"
     inkscape:window-maximized="1" />
  <metadata
     id="metadata4104">
    <rdf:RDF>
      <cc:Work
         rdf:about="">
        <dc:format>image/svg+xml</dc:format>
        <dc:type
           rdf:resource="http://purl.org/dc/dcmitype/StillImage" />
        <dc:title></dc:title>
      </cc:Work>
    </rdf:RDF>
  </metadata>
  <g
     inkscape:label="Layer 1"
     inkscape:groupmode="layer"
     id="layer1"
     transform="translate(0,-802.36218)">
    <path
       inkscape:connector-curvature="0"
       d="m 63.763374,849.02592 10.588749,77.91293 c 5.130204,0.68534 10.527108,1.21927 16.15788,1.53212 l -10.352715,-81.33689 -16.393914,1.89184"
       style="fill:#f3b52b;fill-opacity:1;fill-rule:nonzero;stroke:none"
       id="path3115" />
    <path
       inkscape:connector-curvature="0"
       d="m 59.225736,924.4147 c 3.212495,0.6652 6.573364,1.26576 10.074862,1.79969 l -4.386475,-31.04969 -5.688387,29.25"
       style="fill:#f3b52b;fill-opacity:1;fill-rule:nonzero;stroke:none"
       id="path3117" />
    <path
       inkscape:connector-curvature="0"
       d="m 108.31796,856.86393 -16.496444,-0.62029 -1.616934,27.67414 5.252867,44.69686 12.042441,-57.74657 0.81807,-14.00414"
       style="fill:#f3b52b;fill-opacity:1;fill-rule:nonzero;stroke:none"
       id="path3119" />
    <path
       inkscape:connector-curvature="0"
       d="m 118.05674,852.88742 -12.50956,51.35819 -5.12122,24.55061 c 0.73939,0.0124 1.48219,0.0248 2.23397,0.0248 4.96851,0 9.76015,-0.17811 14.40651,-0.49134 l 17.05649,-71.62423 -16.06619,-3.81739"
       style="fill:#f3b52b;fill-opacity:1;fill-rule:nonzero;stroke:none"
       id="path3121" />
    <path
       inkscape:connector-curvature="0"
       d="m 123.02432,927.84024 c 5.7714,-0.5413 11.26309,-1.28859 16.43139,-2.17954 l -9.0127,-29.35262 -7.41869,31.53216"
       style="fill:#f3b52b;fill-opacity:1;fill-rule:nonzero;stroke:none"
       id="path3123" />
    <path
       inkscape:connector-curvature="0"
       d="m 132.73583,887.22404 11.02737,37.55348 c 5.84636,-1.05705 9.13351,-1.79969 14.04316,-3.07785 l -19.96139,-57.14173 -5.10914,22.6661"
       style="fill:#f3b52b;fill-opacity:1;fill-rule:nonzero;stroke:none"
       id="path3125" />
    <path
       inkscape:connector-curvature="0"
       d="m 175.54401,866.51638 -13.16098,36.35741 -2.76056,9.06118 2.90398,8.44126 0.18895,-0.0186 c 4.68508,-1.36253 8.81663,-2.71772 12.33238,-3.97342 l 16.00671,-44.25235 -15.5111,-5.61436"
       style="fill:#f3b52b;fill-opacity:1;fill-rule:nonzero;stroke:none"
       id="path3127" />
    <path
       inkscape:connector-curvature="0"
       d="m 48.046899,877.97663 -8.920396,41.33791 c 4.522459,1.38694 9.649565,2.78435 15.307595,4.06557 l 8.220654,-42.25133 -14.607853,-3.15215"
       style="fill:#f3b52b;fill-opacity:1;fill-rule:nonzero;stroke:none"
       id="path3129" />
    <path
       inkscape:connector-curvature="0"
       d="m 12.725873,865.41674 13.787925,49.5612 c 1.391121,0.53396 6.984721,2.62906 6.984721,2.62906 l 4.823234,-21.75272 -9.695099,-34.85973 -15.900781,4.42219"
       style="fill:#f3b52b;fill-opacity:1;fill-rule:nonzero;stroke:none"
       id="path3131" />
    <path
       inkscape:connector-curvature="0"
       d="m 146.63589,852.14013 -1.57202,17.53577 11.84048,34.36372 2.3619,-7.76329 3.79453,-42.6567 -16.42489,-1.4795"
       style="fill:#f3b52b;fill-opacity:1;fill-rule:nonzero;stroke:none"
       id="path3133" />
    <path
       inkscape:connector-curvature="0"
       d="m 60.339005,849.02592 10.592157,77.91293 c 5.128654,0.68534 10.525249,1.21927 16.156021,1.53212 l -10.352715,-81.33689 -16.395463,1.89184"
       style="fill:#fbcb3a;fill-opacity:1;fill-rule:nonzero;stroke:none"
       id="path3135" />
    <path
       inkscape:connector-curvature="0"
       d="m 55.799819,924.4147 c 3.220238,0.6652 6.574912,1.26576 10.079508,1.79969 l -4.386166,-31.04969 -5.693342,29.25"
       style="fill:#fbcb3a;fill-opacity:1;fill-rule:nonzero;stroke:none"
       id="path3137" />
    <path
       inkscape:connector-curvature="0"
       d="m 104.89824,856.86393 -16.497995,-0.62029 -1.616934,27.67414 5.251318,44.69686 12.045541,-57.74657 0.81807,-14.00414"
       style="fill:#fbcb3a;fill-opacity:1;fill-rule:nonzero;stroke:none"
       id="path3139" />
    <path
       inkscape:connector-curvature="0"
       d="m 114.63608,852.88742 -12.51327,51.35819 -5.12091,24.55061 c 0.74094,0.0124 1.485287,0.0248 2.236759,0.0248 4.965411,0 9.758601,-0.17811 14.406511,-0.49134 l 17.05494,-71.62408 -16.06403,-3.81739"
       style="fill:#fbcb3a;fill-opacity:1;fill-rule:nonzero;stroke:none"
       id="path3141" />
    <path
       inkscape:connector-curvature="0"
       d="m 119.59995,927.84024 c 5.7745,-0.5413 11.26774,-1.28859 16.43294,-2.17954 l -9.01425,-29.35262 -7.41869,31.53216"
       style="fill:#fbcb3a;fill-opacity:1;fill-rule:nonzero;stroke:none"
       id="path3143" />
    <path
       inkscape:connector-curvature="0"
       d="m 129.31301,887.22404 11.03047,37.55348 c 5.84326,-1.05705 9.13041,-1.79969 14.04006,-3.07785 l -19.95829,-57.14173 -5.11224,22.6661"
       style="fill:#fbcb3a;fill-opacity:1;fill-rule:nonzero;stroke:none"
       id="path3145" />
    <path
       inkscape:connector-curvature="0"
       d="m 172.12119,866.51638 -13.16098,36.35741 -2.75684,9.06118 2.90398,8.44126 0.18895,-0.0186 c 4.68105,-1.36253 8.8126,-2.71772 12.33206,-3.97342 l 16.003,-44.25235 -15.5111,-5.61436"
       style="fill:#fbcb3a;fill-opacity:1;fill-rule:nonzero;stroke:none"
       id="path3147" />
    <path
       inkscape:connector-curvature="0"
       d="m 44.624079,877.97663 -8.921945,41.33791 c 4.525557,1.38694 9.652662,2.78435 15.310693,4.06557 l 8.220653,-42.25133 -14.609401,-3.15215"
       style="fill:#fbcb3a;fill-opacity:1;fill-rule:nonzero;stroke:none"
       id="path3149" />
    <path
       inkscape:connector-curvature="0"
       d="m 9.3030526,865.41674 13.7879254,49.5612 c 1.394218,0.53396 6.987819,2.62906 6.987819,2.62906 l 4.820136,-21.75272 -9.6951,-34.85973 -15.9007804,4.42219"
       style="fill:#fbcb3a;fill-opacity:1;fill-rule:nonzero;stroke:none"
       id="path3151" />
    <path
       inkscape:connector-curvature="0"
       d="m 143.21586,852.14013 -1.5745,17.53577 11.84017,34.36372 2.3619,-7.76329 3.79453,-42.6567 -16.4221,-1.4795"
       style="fill:#fbcb3a;fill-opacity:1;fill-rule:nonzero;stroke:none"
       id="path3153" />
    <path
       inkscape:connector-curvature="0"
       d="m 7.5166813,906.50684 22.9852437,141.04696 133.236295,0 22.98803,-139.82806 c -3.4888,1.70754 -38.51834,18.3299 -87.487591,18.3299 -48.971419,0 -88.23256,-17.83816 -91.7219777,-19.5488"
       style="fill:#f25547;fill-opacity:1;fill-rule:nonzero;stroke:none"
       id="path3155" />
  </g>
</svg>
