<?xml version="1.0" encoding="UTF-8" standalone="no"?>
<!-- Created with Inkscape (http://www.inkscape.org/) -->

<svg
   xmlns:dc="http://purl.org/dc/elements/1.1/"
   xmlns:cc="http://creativecommons.org/ns#"
   xmlns:rdf="http://www.w3.org/1999/02/22-rdf-syntax-ns#"
   xmlns:svg="http://www.w3.org/2000/svg"
   xmlns="http://www.w3.org/2000/svg"
   xmlns:sodipodi="http://sodipodi.sourceforge.net/DTD/sodipodi-0.dtd"
   xmlns:inkscape="http://www.inkscape.org/namespaces/inkscape"
   width="250"
   height="250"
   id="svg3855"
   version="1.1"
   inkscape:version="0.48.4 r9939"
   sodipodi:docname="cupcake.svg">
  <defs
     id="defs3857" />
  <sodipodi:namedview
     id="base"
     pagecolor="#ffffff"
     bordercolor="#666666"
     borderopacity="1.0"
     inkscape:pageopacity="0.0"
     inkscape:pageshadow="2"
     inkscape:zoom="0.98994949"
     inkscape:cx="261.87396"
     inkscape:cy="293.53087"
     inkscape:document-units="px"
     inkscape:current-layer="layer1"
     showgrid="false"
     inkscape:window-width="1855"
     inkscape:window-height="1056"
     inkscape:window-x="65"
     inkscape:window-y="24"
     inkscape:window-maximized="1" />
  <metadata
     id="metadata3860">
    <rdf:RDF>
      <cc:Work
         rdf:about="">
        <dc:format>image/svg+xml</dc:format>
        <dc:type
           rdf:resource="http://purl.org/dc/dcmitype/StillImage" />
        <dc:title></dc:title>
      </cc:Work>
    </rdf:RDF>
  </metadata>
  <g
     inkscape:label="Layer 1"
     inkscape:groupmode="layer"
     id="layer1"
     transform="translate(0,-802.36218)">
    <g
       id="g3928"
       transform="matrix(3.0208695,0,0,3.0208695,-893.03116,-1504.1178)">
      <path
         id="path3159"
         style="fill:#fef8e9;fill-opacity:1;fill-rule:nonzero;stroke:none"
         d="m 307.97971,805.13514 c 31.80375,12.0325 55.1625,0 55.1625,0 l 0.82875,-0.21375 -10.49375,33.42375 c -20.985,12.03247 -36.12,-0.2475 -36.12,-0.2475 l -10.49375,-33.42375 1.11625,0.46125"
         inkscape:connector-curvature="0" />
      <path
         id="path3161"
         style="fill:#fef8e9;fill-opacity:1;fill-rule:nonzero;stroke:none"
         d="m 309.92096,806.45389 c 28.9525,10.955 50.2175,0 50.2175,0 l 0.755,-0.1925 -9.5525,30.4275 c -19.10375,10.95252 -32.8825,-0.225 -32.8825,-0.225 l -9.5525,-30.4275 1.015,0.4175"
         inkscape:connector-curvature="0" />
      <path
         id="path3163"
         style="fill:#f4ebcd;fill-opacity:1;fill-rule:nonzero;stroke:none"
         d="m 334.80721,842.10764 c -0.37,0 -0.69625,-0.13625 -0.69625,-0.4575 0,-0.0513 0,-0.1025 0,-0.15375 0.13625,10e-4 0.27375,0.002 0.4125,0.002 0.4325,0 0.87125,-0.01 1.31875,-0.03 0,0.0188 0,0.0375 0,0.0563 0,0.3525 -0.55375,0.5825 -1.035,0.5825"
         inkscape:connector-curvature="0" />
      <path
         id="path3165"
         style="fill:#f4ebcd;fill-opacity:1;fill-rule:nonzero;stroke:none"
         d="m 334.52346,841.49889 c -0.13875,0 -0.27625,-10e-4 -0.4125,-0.002 0,-9.58375 0,-19.1675 0,-28.75125 0,-0.3525 0.55375,-0.5825 1.03375,-0.5825 0.37,0 0.6975,0.13625 0.6975,0.45875 0,9.615 0,19.2325 0,28.8475 -0.4475,0.02 -0.88625,0.03 -1.31875,0.03"
         inkscape:connector-curvature="0" />
      <path
         id="path3167"
         style="fill:#f4ebcd;fill-opacity:1;fill-rule:nonzero;stroke:none"
         d="m 341.82846,840.97389 c -0.245,0 -0.4275,-0.0712 -0.39625,-0.24125 0.004,-0.0163 0.007,-0.0337 0.01,-0.0512 0.4875,-0.11375 0.98,-0.2425 1.47875,-0.38375 -0.0137,0.0713 -0.0275,0.1425 -0.04,0.21375 -0.05,0.2625 -0.64,0.4625 -1.0525,0.4625"
         inkscape:connector-curvature="0" />
      <path
         id="path3169"
         style="fill:#f4ebcd;fill-opacity:1;fill-rule:nonzero;stroke:none"
         d="m 341.44221,840.68139 c 1.75,-9.40375 2.72125,-18.90875 4.06,-28.37375 0.0375,-0.26125 0.6275,-0.4675 1.04375,-0.4675 0.245,0 0.43,0.0725 0.40625,0.24625 -1.3325,9.41 -2.30125,18.86 -4.03125,28.21125 -0.49875,0.14125 -0.99125,0.27 -1.47875,0.38375"
         inkscape:connector-curvature="0" />
      <path
         id="path3171"
         style="fill:#f4ebcd;fill-opacity:1;fill-rule:nonzero;stroke:none"
         d="m 349.82221,837.51889 c 0.21375,-0.11125 0.43,-0.22625 0.645,-0.3425 -0.0613,0.16625 -0.345,0.27875 -0.645,0.3425"
         inkscape:connector-curvature="0" />
      <path
         id="path3173"
         style="fill:#f4ebcd;fill-opacity:1;fill-rule:nonzero;stroke:none"
         d="m 349.27096,837.58139 c -0.15375,0 -0.25625,-0.0213 -0.25125,-0.06 1.125,-9.4 3.92,-18.47625 5.2575,-27.8425 0.0438,-0.30875 0.80875,-0.44625 1.21375,-0.44625 0.15,0 0.25125,0.02 0.24625,0.0563 -1.3375,9.3625 -4.13375,18.44625 -5.25875,27.84125 -0.002,0.0163 -0.006,0.0312 -0.0112,0.0463 -0.215,0.11625 -0.43125,0.23125 -0.645,0.3425 -0.19625,0.0412 -0.39875,0.0625 -0.55125,0.0625"
         inkscape:connector-curvature="0" />
      <path
         id="path3175"
         style="fill:#f4ebcd;fill-opacity:1;fill-rule:nonzero;stroke:none"
         d="m 328.12346,841.19139 c -0.2675,0 -0.50125,-0.11125 -0.55,-0.37375 -0.0125,-0.0612 -0.0238,-0.12125 -0.035,-0.1825 0.42,0.105 0.85375,0.205 1.2975,0.295 -0.18375,0.16375 -0.4625,0.26125 -0.7125,0.26125"
         inkscape:connector-curvature="0" />
      <path
         id="path3177"
         style="fill:#f4ebcd;fill-opacity:1;fill-rule:nonzero;stroke:none"
         d="m 328.83596,840.93014 c -0.44375,-0.09 -0.8775,-0.19 -1.2975,-0.295 -1.73375,-9.36 -2.7025,-18.8225 -4.03375,-28.2425 -0.0637,-0.4525 0.485,-0.76625 0.92875,-0.76625 0.26625,0 0.49375,0.1125 0.53125,0.375 1.33875,9.4825 2.31125,19.005 4.0675,28.425 0.0362,0.2 -0.0488,0.3725 -0.19625,0.50375"
         inkscape:connector-curvature="0" />
      <path
         id="path3179"
         style="fill:#f4ebcd;fill-opacity:1;fill-rule:nonzero;stroke:none"
         d="m 320.44221,837.79514 c -0.24125,0 -0.4375,-0.0825 -0.46125,-0.27375 0,-0.007 -10e-4,-0.015 -0.002,-0.0225 0.155,0.0937 0.32125,0.19375 0.49875,0.29625 -0.0125,0 -0.0238,0 -0.035,0"
         inkscape:connector-curvature="0" />
      <path
         id="path3181"
         style="fill:#f4ebcd;fill-opacity:1;fill-rule:nonzero;stroke:none"
         d="m 320.47721,837.79514 c -0.1775,-0.1025 -0.34375,-0.2025 -0.49875,-0.29625 -1.125,-9.39 -3.9175,-18.4625 -5.25375,-27.82 -0.0538,-0.38375 0.54375,-0.665 0.99125,-0.665 0.2425,0 0.44,0.0825 0.4675,0.275 1.3375,9.365 4.13375,18.445 5.2575,27.84125 0.0437,0.3775 -0.52375,0.65125 -0.96375,0.665"
         inkscape:connector-curvature="0" />
      <path
         id="path3183"
         style="fill:#9f461e;fill-opacity:1;fill-rule:nonzero;stroke:none"
         d="m 364.47471,804.62764 c 0,12.98125 -58.07625,12.98125 -58.07625,0 0,-12.98 13,-24.75 29.03875,-24.75 16.03625,0 29.0375,11.77 29.0375,24.75"
         inkscape:connector-curvature="0" />
      <path
         id="path3185"
         style="fill:#f9a8b9;fill-opacity:1;fill-rule:nonzero;stroke:none"
         d="m 356.25596,785.57014 c -6.73625,-5.7225 -16.77625,-6.22375 -25.6,-4.82125 -7.71625,1.22625 -12.635,2.4725 -18.07875,8.24125 -5.43875,5.76875 -7.11625,13.05125 -7.11625,13.05125 -0.3575,3.555 4.55,2.6325 11.09125,-0.94875 2.86625,-1.57 4.8575,9.66125 9.805,9.0975 4.945,-0.5625 5.2225,-7.14875 6.75375,-7.78375 4.09125,-1.695 6.525,8.23125 10.5625,7.95625 4.8225,-0.32625 8.925,-14.46625 12.18,-10.405 3.8175,4.76625 9.11875,8.51375 10.27625,2.58375 0.745,-3.8075 -3.13875,-11.24875 -9.87375,-16.97125"
         inkscape:connector-curvature="0" />
      <path
         id="path3187"
         style="fill:#f791a8;fill-opacity:1;fill-rule:nonzero;stroke:none"
         d="m 356.25596,784.20889 c -6.73625,-5.7225 -16.77625,-6.225 -25.6,-4.82125 -7.7175,1.225 -12.635,2.47125 -18.07875,8.24125 -5.43875,5.7675 -7.11625,13.05125 -7.11625,13.05125 -0.3575,3.555 4.55,2.63375 11.09125,-0.95 1.4925,-0.81625 2.74625,1.83375 4.30375,4.48375 1.43625,2.4425 3.12875,4.885 5.50125,4.615 4.945,-0.5625 5.2225,-7.15 6.75375,-7.785 2.17875,-0.9025 3.8875,1.49125 5.61875,3.885 1.52,2.10125 3.05625,4.2025 4.94375,4.07375 4.8225,-0.32875 8.925,-14.46875 12.18,-10.40625 3.8175,4.76625 9.11875,8.51125 10.27625,2.58375 0.745,-3.8075 -3.13875,-11.24875 -9.87375,-16.97125"
         inkscape:connector-curvature="0" />
      <path
         id="path3189"
         style="fill:#72c833;fill-opacity:1;fill-rule:nonzero;stroke:none"
         d="m 320.48221,792.75764 -6.3775,-2.69625 0.3375,-0.7975 6.375,2.69625 -0.335,0.7975"
         inkscape:connector-curvature="0" />
      <path
         id="path3191"
         style="fill:#fbcb3a;fill-opacity:1;fill-rule:nonzero;stroke:none"
         d="m 338.03221,793.24014 -6.12375,3.22875 -0.40375,-0.76375 6.125,-3.23 0.4025,0.765"
         inkscape:connector-curvature="0" />
      <path
         id="path3193"
         style="fill:#fef8e9;fill-opacity:1;fill-rule:nonzero;stroke:none"
         d="m 359.35221,792.87389 -6.26625,-2.94375 0.37,-0.7825 6.26375,2.945 -0.3675,0.78125"
         inkscape:connector-curvature="0" />
      <path
         id="path3195"
         style="fill:#f25547;fill-opacity:1;fill-rule:nonzero;stroke:none"
         d="m 352.50846,784.08514 -5.535,4.1575 -0.52,-0.69 5.53375,-4.16 0.52125,0.6925"
         inkscape:connector-curvature="0" />
      <path
         id="path3197"
         style="fill:#72c833;fill-opacity:1;fill-rule:nonzero;stroke:none"
         d="m 344.85096,804.89014 -5.1625,-4.61375 0.575,-0.645 5.16375,4.61375 -0.57625,0.645"
         inkscape:connector-curvature="0" />
      <path
         id="path3199"
         style="fill:#9f461e;fill-opacity:1;fill-rule:nonzero;stroke:none"
         d="m 351.23346,797.77139 -6.82125,1.1775 -0.14625,-0.8525 6.8225,-1.17875 0.145,0.85375"
         inkscape:connector-curvature="0" />
      <path
         id="path3201"
         style="fill:#fef8e9;fill-opacity:1;fill-rule:nonzero;stroke:none"
         d="m 328.52846,802.58764 -6.74875,-1.54125 0.1925,-0.84375 6.75,1.54125 -0.19375,0.84375"
         inkscape:connector-curvature="0" />
      <path
         id="path3203"
         style="fill:#fbcb3a;fill-opacity:1;fill-rule:nonzero;stroke:none"
         d="m 363.02221,794.75139 -2.02625,6.61875 -0.8275,-0.2525 2.0275,-6.62 0.82625,0.25375"
         inkscape:connector-curvature="0" />
      <path
         id="path3205"
         style="fill:#9f461e;fill-opacity:1;fill-rule:nonzero;stroke:none"
         d="m 327.50346,789.88389 -3.52,-5.96125 0.745,-0.43875 3.52,5.96125 -0.745,0.43875"
         inkscape:connector-curvature="0" />
      <path
         id="path3207"
         style="fill:#f25547;fill-opacity:1;fill-rule:nonzero;stroke:none"
         d="m 314.87721,797.60264 -6.75625,1.50625 -0.18875,-0.84375 6.7575,-1.5075 0.1875,0.845"
         inkscape:connector-curvature="0" />
      <path
         id="path3209"
         style="fill:#ea4037;fill-opacity:1;fill-rule:nonzero;stroke:none"
         d="m 332.09596,781.49514 c 0.0213,-3.69375 2.65125,-6.0575 6.14875,-6.0325 3.49625,0.0238 6.535,2.42625 6.51625,6.12 -0.0225,3.69375 -2.79875,6.36125 -6.29625,6.3375 -3.49625,-0.0238 -6.39,-2.7325 -6.36875,-6.425"
         inkscape:connector-curvature="0" />
      <path
         id="path3211"
         style="fill:#c43c2c;fill-opacity:1;fill-rule:nonzero;stroke:none"
         d="m 340.66846,777.99639 c -0.1775,0 -0.37375,-0.0275 -0.57375,-0.0875 -0.64625,-0.19 -1.09125,-0.6375 -0.99625,-0.9975 0.0688,-0.24875 0.3775,-0.39125 0.7775,-0.39125 0.17625,0 0.37125,0.0288 0.57,0.0875 0.64625,0.1925 1.09,0.64 0.99375,0.99875 -0.065,0.24875 -0.37375,0.39 -0.77125,0.39"
         inkscape:connector-curvature="0" />
      <path
         id="path3213"
         style="fill:#97d552;fill-opacity:1;fill-rule:nonzero;stroke:none"
         d="m 340.78721,777.66764 c 0,0 -0.4075,0.0412 -0.61875,-0.24875 0,0 3.6225,-5.87625 3.515,-10.16625 -0.009,-0.30375 -0.4025,-0.54375 -0.45,-0.83125 l 1.71,-0.135 c 0,0 -0.0775,6.06625 -4.15625,11.38125"
         inkscape:connector-curvature="0" />
      <path
         id="path3215"
         style="fill:#7fc83d;fill-opacity:1;fill-rule:nonzero;stroke:none"
         d="m 340.62971,777.61389 c 0,0 4.705,-7.60375 3.70875,-10.95875 l 0.5,0.21125 c 0,0 -0.0637,5.50125 -4.05125,10.80125 l -0.1575,-0.0538"
         inkscape:connector-curvature="0" />
    </g>
  </g>
</svg>
